<?xml version="1.0" encoding="utf-8"?>
<!-- Generator: Adobe Illustrator 25.0.1, SVG Export Plug-In . SVG Version: 6.00 Build 0)  -->
<svg version="1.1" id="Layer_1" xmlns="http://www.w3.org/2000/svg" xmlns:xlink="http://www.w3.org/1999/xlink" x="0px" y="0px"
	 viewBox="0 0 876.31 902.65" style="enable-background:new 0 0 876.31 902.65;" xml:space="preserve">
<style type="text/css">
	.st0{fill-rule:evenodd;clip-rule:evenodd;fill:#FDFDFD;}
	.st1{fill:#DD2319;}
	.st2{fill-rule:evenodd;clip-rule:evenodd;fill:#DD2319;}
	.st3{fill:#FDFDFD;}
	.st4{fill:#606060;}
	.st5{fill-rule:evenodd;clip-rule:evenodd;fill:#FFFFFF;}
	.st6{fill:#363437;}
	.st7{fill:#1C75BC;}
	.st8{fill:#FFFFFF;}
	.st9{fill-rule:evenodd;clip-rule:evenodd;fill:#1C75BC;}
	.st10{fill-rule:evenodd;clip-rule:evenodd;fill:#F15A29;}
	.st11{fill:#F15A29;}
	.st12{fill:#007C8E;}
	.st13{fill:#00929E;}
	.st14{fill:#F04E3E;}
	.st15{fill:#ED1C24;}
	.st16{fill:#FCAF17;}
	.st17{fill:#F58220;}
	.st18{fill:#50B848;}
	.st19{fill:#B2D235;}
	.st20{fill:none;}
	.st21{fill:none;stroke:#FFFFFF;stroke-width:1.1614;stroke-miterlimit:10;}
	.st22{opacity:0.39;fill:#FFFFFF;}
	.st23{fill:none;stroke:#FFFFFF;stroke-width:0.5007;stroke-miterlimit:10;}
	.st24{opacity:0.41;fill:#050505;}
	.st25{fill:#C92020;stroke:#FFFFFF;stroke-width:0.6087;stroke-miterlimit:10;}
	.st26{fill:none;stroke:#FFFFFF;stroke-width:0.3472;stroke-miterlimit:10;}
</style>
<g>
	<g>
		<g>
			<path class="st12" d="M490.24,615.41c2.76-2.69,5.59-3.88,9.66-3.88c9.2,0,17.09,7.69,17.09,17.74c0,10.19-8.61,17.74-18.4,17.74
				c-8.81,0-16.69-7.43-16.69-18.27v-40.65l8.35-1.05V615.41z M490.24,629.28c0,5.45,4.27,10.12,9.86,10.12c4.73,0,9-4.67,9-10.12
				c0-5.46-4.27-10.12-9-10.12C494.51,619.16,490.24,623.83,490.24,629.28z"/>
			<path class="st12" d="M558.6,631.65h-28.2c0.53,2.19,1.68,3.93,3.45,5.23c1.77,1.29,3.98,1.94,6.61,1.94
				c1.84,0,3.35-0.26,4.53-0.79c1.18-0.53,2.34-1.47,3.48-2.83H558c-1.1,3.42-3.26,6.21-6.51,8.38c-3.24,2.17-6.86,3.25-10.84,3.25
				c-5.52,0-10.19-1.82-14-5.46c-3.81-3.64-5.72-8.13-5.72-13.47c0-5.35,1.86-9.88,5.59-13.6c3.72-3.72,8.26-5.59,13.6-5.59
				c5.43,0,9.92,1.84,13.47,5.52c3.55,3.68,5.32,8.37,5.32,14.06C558.92,629.48,558.81,630.59,558.6,631.65z M530.14,623.96h20.18
				c-1.14-4.82-4.47-7.23-9.99-7.23C534.93,616.73,531.54,619.14,530.14,623.96z"/>
			<path class="st12" d="M601.45,609.56v36.41h-8.02v-4.73c-1.71,1.97-3.51,3.4-5.39,4.27c-1.88,0.88-4.12,1.31-6.7,1.31
				c-5.35,0-9.74-1.78-13.18-5.36c-3.44-3.57-5.16-8.09-5.16-13.57c0-5.56,1.74-10.15,5.23-13.77c3.48-3.62,7.9-5.42,13.24-5.42
				c2.72,0,5.01,0.44,6.87,1.31c1.86,0.88,3.56,2.34,5.09,4.4v-4.86H601.45z M582.42,616.73c-3.16,0-5.74,1.05-7.71,3.16
				c-1.98,2.1-2.97,4.84-2.97,8.22c0,3.2,0.99,5.78,2.97,7.76c1.98,1.97,4.59,2.96,7.84,2.96c3.21,0,5.78-1.01,7.71-3.02
				c1.93-2.01,2.9-4.64,2.9-7.89c0-3.24-1.01-5.92-3.03-8.02C588.11,617.78,585.54,616.73,582.42,616.73z"/>
			<path class="st12" d="M609.27,645.97v-28.39H605v-8.02h4.27V597.4h8.74v12.16h5.26v8.02h-5.26v28.39H609.27z"/>
		</g>
		<g>
			<path class="st13" d="M290.44,632.41h10.58c-1.88,4.43-4.84,7.93-8.87,10.52c-4.03,2.59-8.54,3.88-13.54,3.88
				c-7.1,0-13.13-2.46-18.11-7.39c-4.97-4.93-7.46-10.9-7.46-17.91c0-6.88,2.44-12.76,7.33-17.65c4.88-4.88,10.77-7.33,17.65-7.33
				c5.17,0,9.78,1.3,13.83,3.91c4.05,2.61,7.11,6.23,9.17,10.88h-10.06c-3.15-4.07-7.41-6.11-12.75-6.11c-4.6,0-8.43,1.56-11.5,4.67
				c-3.07,3.11-4.6,7.01-4.6,11.7c0,4.56,1.58,8.46,4.73,11.7c3.15,3.24,7.01,4.86,11.57,4.86c2.41,0,4.5-0.42,6.28-1.25
				C286.47,636.05,288.38,634.56,290.44,632.41z"/>
			<path class="st13" d="M305.89,645.95v-36.41h8.02v3.55c1.14-1.66,2.28-2.82,3.42-3.45c1.14-0.63,2.61-0.95,4.4-0.95h0.72v8.41
				c-5.21,0-7.82,2.87-7.82,8.61v20.24H305.89z"/>
			<path class="st13" d="M363,631.63h-28.2c0.53,2.19,1.68,3.93,3.45,5.23c1.77,1.29,3.98,1.94,6.61,1.94
				c1.84,0,3.35-0.26,4.53-0.79c1.18-0.53,2.34-1.47,3.48-2.83h9.53c-1.1,3.42-3.26,6.21-6.51,8.38c-3.24,2.17-6.86,3.25-10.84,3.25
				c-5.52,0-10.19-1.82-14-5.46c-3.81-3.64-5.72-8.13-5.72-13.47c0-5.35,1.86-9.88,5.59-13.6c3.72-3.72,8.26-5.59,13.6-5.59
				c5.43,0,9.92,1.84,13.47,5.52c3.55,3.68,5.32,8.37,5.32,14.06C363.33,629.46,363.22,630.57,363,631.63z M334.54,623.94h20.18
				c-1.14-4.82-4.47-7.23-9.99-7.23C339.34,616.71,335.94,619.12,334.54,623.94z"/>
			<path class="st13" d="M405.85,609.54v36.41h-8.02v-4.73c-1.71,1.97-3.51,3.4-5.39,4.27c-1.88,0.88-4.12,1.31-6.7,1.31
				c-5.35,0-9.74-1.78-13.18-5.36c-3.44-3.57-5.16-8.09-5.16-13.57c0-5.56,1.74-10.15,5.22-13.77c3.48-3.62,7.9-5.42,13.24-5.42
				c2.72,0,5.01,0.44,6.87,1.31c1.86,0.88,3.56,2.34,5.09,4.4v-4.86H405.85z M386.83,616.71c-3.16,0-5.73,1.05-7.71,3.16
				c-1.98,2.1-2.97,4.84-2.97,8.22c0,3.2,0.99,5.78,2.97,7.76c1.98,1.97,4.59,2.96,7.84,2.96c3.21,0,5.78-1.01,7.71-3.02
				c1.93-2.01,2.9-4.64,2.9-7.89c0-3.24-1.01-5.92-3.03-8.02C392.52,617.76,389.95,616.71,386.83,616.71z"/>
			<path class="st13" d="M413.67,645.95v-28.39h-4.27v-8.02h4.27v-12.16h8.74v12.16h5.26v8.02h-5.26v28.39H413.67z"/>
			<path class="st13" d="M468.16,631.63h-28.2c0.53,2.19,1.68,3.93,3.45,5.23c1.77,1.29,3.98,1.94,6.61,1.94
				c1.84,0,3.35-0.26,4.53-0.79c1.18-0.53,2.34-1.47,3.48-2.83h9.53c-1.1,3.42-3.26,6.21-6.51,8.38c-3.24,2.17-6.86,3.25-10.84,3.25
				c-5.52,0-10.19-1.82-14-5.46c-3.81-3.64-5.72-8.13-5.72-13.47c0-5.35,1.86-9.88,5.59-13.6c3.72-3.72,8.26-5.59,13.6-5.59
				c5.43,0,9.92,1.84,13.47,5.52c3.55,3.68,5.32,8.37,5.32,14.06C468.49,629.46,468.38,630.57,468.16,631.63z M439.7,623.94h20.18
				c-1.14-4.82-4.47-7.23-9.99-7.23C444.5,616.71,441.1,619.12,439.7,623.94z"/>
		</g>
	</g>
	<g>
		<g>
			<path class="st12" d="M413.21,417.16v-4.21c0-0.34,0.27-0.61,0.61-0.61h2.19c0.34,0,0.61,0.27,0.61,0.61v4.21
				c0,0.34,0.27,0.61,0.61,0.61h4.26c0.34,0,0.61,0.27,0.61,0.61v2.14c0,0.34-0.27,0.61-0.61,0.61h-4.26
				c-0.34,0-0.61,0.27-0.61,0.61v4.32c0,0.34-0.27,0.61-0.61,0.61h-2.19c-0.34,0-0.61-0.27-0.61-0.61v-4.32
				c0-0.34-0.27-0.61-0.61-0.61h-4.21c-0.34,0-0.61-0.27-0.61-0.61v-2.14c0-0.34,0.27-0.61,0.61-0.61h4.21
				C412.94,417.77,413.21,417.5,413.21,417.16z"/>
		</g>
		<g>
			<path class="st17" d="M408.27,467.12c-0.31,0.21-0.48,0.43-0.48,0.66c0,0.07,0.02,0.15,0.05,0.22c0.04,0.06,0.08,0.12,0.13,0.18
				c0,0,0.01,0.01,0.01,0.01c0.41,0.45,1.47,0.84,2.93,1.11l1.32,0.19c0.96,0.11,2.04,0.17,3.17,0.17c4.17,0,7.56-0.84,7.6-1.87
				l0.85-0.22l1.19-0.31l0.8-0.21l4.19-0.62l1.24-0.18l4.43-0.66l1.32-0.19l5.59-0.83l1.18-0.19l-0.18-0.21c0,0,0,0,0,0l-0.48-0.56
				l4.85-0.8l1.12-0.21l-0.59-0.4l-9.88-4.45l3.57-0.81l1.83-0.3l2.02-0.31c0.22-0.03,0.37-0.11,0.36-0.2l-0.03-1.33l-0.04-0.39
				l-0.27-1.3c0-0.02-0.02-0.05-0.05-0.07l-0.8-0.57c-0.05-0.04-0.15-0.07-0.27-0.09l-2.1-0.28l-3.35-1.36l0.26-1.03
				c0.01-0.03-0.01-0.07-0.06-0.09l-1.65-0.96l1.89-2.49l3.06-0.34h6.94c0.06,0,0.12,0,0.18-0.01l6.83-0.84l1.44-0.23l-4.01-2.86
				l7.6-0.33l2.81,0.22c0.08,0.01,0.16,0.01,0.24,0l2.79-0.22c0.08-0.01,0.15-0.02,0.21-0.04l3.74-1.2l3.3-0.73
				c0.08-0.02,0.14-0.04,0.15-0.07l0.66-1.16c0-0.01,0-0.01,0.01-0.02l0.12-2.19l1.02-0.76c0.02-0.01,0.03-0.03,0.02-0.05l-0.5-1.68
				l1.65-1.28c0.04-0.03,0.02-0.06-0.04-0.09l-0.84-0.35c-0.04-0.02-0.1-0.03-0.18-0.04l-2.28-0.29l-5.92-1.22l-0.5-0.46
				c0,0,0,0,0,0l-0.86-0.58l0.31-0.43l3.08-0.63l3.37-0.16l7.27-0.11c0.04,0,0.08,0,0.12-0.01l4.63-0.5
				c0.06-0.01,0.11-0.02,0.14-0.03l0.78-0.34c0.16,0.01,0.33,0.01,0.5,0.01c1.48,0,2.68-0.27,2.68-0.61c0-0.14-0.22-0.28-0.59-0.38
				c-0.34-0.08-0.57-0.12-0.57-0.12c-0.31-0.05-0.68-0.08-1.07-0.1c0,0-0.73-0.01-0.73-0.01c-0.48,0.01-0.93,0.05-1.3,0.11
				c-0.67,0.11-1.1,0.29-1.1,0.49c0,0.23,0.59,0.44,1.44,0.54l-0.65,0.29l-4.47,0.48l-6.76,0.1l-0.75,0.02l-3.22,0.15
				c-0.06,0-0.12,0.01-0.16,0.02l-3.24,0.66c-0.06,0.01-0.1,0.03-0.12,0.05l-0.36,0.48c-0.01,0.01,0,0.03,0.02,0.05l0.88,0.6
				l0.52,0.48c0.02,0.02,0.07,0.04,0.13,0.05l6.06,1.25c0.02,0,0.05,0.01,0.08,0.01l2.22,0.29l0.67,0.28l-1.63,1.26
				c-0.02,0.01-0.02,0.03-0.02,0.04l0.47,1.67l-1.02,0.76c-0.01,0.01-0.02,0.02-0.02,0.04l-0.15,2.2l-0.65,1.1l-3.2,0.7
				c-0.02,0-0.04,0.01-0.06,0.02l-3.68,1.17l-2.54,0.2l-2.78-0.22c-0.06,0-0.12-0.01-0.18,0l-7.91,0.34l-1.23,0.33l0.45,0.33
				l3.33,2.42l-6.68,0.81h-6.9c-0.06,0-0.11,0-0.17,0.01l-3.42,0.38c-0.17,0.02-0.31,0.07-0.35,0.12l-2.04,2.64
				c-0.03,0.04-0.02,0.08,0.04,0.12l1.66,0.98l-0.23,0.87l0.2,0.35l2.08,0.85l1.32,0.54c0.05,0.02,0.12,0.04,0.19,0.05l2.04,0.27
				l0.67,0.48l0.24,1.21l0.04,0.39l0.01,1.22l-2.61,0.4l-1.12,0.2l-3.26,0.74l-1.11,0.26l0.45,0.38l9.74,4.42l-4.89,0.8l-0.62,0.44
				l0.39,0.47l-6.45,0.95c0,0,0,0,0,0l-5.42,0.8c0,0,0,0,0,0c0,0,0,0,0,0l-4.86,0.72c-0.04,0.01-1.83,0.47-2.74,0.7
				c-0.87-0.8-3.83-1.39-7.34-1.39c-2.02,0-3.86,0.2-5.22,0.52C408.98,466.66,408.27,467.12,408.27,467.12z M415.38,469.23
				c-3.22,0-5.83-0.65-5.83-1.45c0-0.8,2.61-1.45,5.83-1.45s5.83,0.65,5.83,1.45C421.22,468.58,418.6,469.23,415.38,469.23z
				 M487.74,426.99c-0.04,0-0.07,0-0.11,0c-0.27,0-0.53-0.02-0.75-0.05c-0.6-0.07-1-0.21-1-0.37c0-0.01,0-0.02,0.01-0.04
				c0.05-0.13,0.37-0.25,0.84-0.32c0.29-0.04,0.64-0.07,1.02-0.07c0.28,0,0.55,0.01,0.78,0.04c0.25,0.03,0.46,0.06,0.64,0.11
				c0.28,0.07,0.44,0.17,0.44,0.27C489.6,426.8,488.77,426.99,487.74,426.99z"/>
			<path class="st13" d="M415.48,398.79c-10.9,0-19.74,8.84-19.74,19.74c0,10.9,8.84,19.74,19.74,19.74
				c10.9,0,19.74-8.84,19.74-19.74C435.22,407.62,426.38,398.79,415.48,398.79z M415.48,435.04c-9.12,0-16.51-7.39-16.51-16.51
				s7.39-16.51,16.51-16.51s16.51,7.39,16.51,16.51S424.6,435.04,415.48,435.04z"/>
			<path class="st12" d="M415.48,394.89c-13.25,0-24,10.75-24,24c0,0.61,0.03,1.23,0.08,1.86c1.52,18.04,23.92,47.39,23.92,47.39
				s20.55-26.93,23.62-45.05c0.25-1.46,0.38-2.87,0.38-4.2C439.48,405.63,428.73,394.89,415.48,394.89z M415.48,436.36
				c-7.62,0-14.12-4.78-16.68-11.5c-0.75-1.97-1.16-4.11-1.16-6.35c0-9.86,7.99-17.84,17.84-17.84c9.86,0,17.84,7.99,17.84,17.84
				c0,2.78-0.63,5.41-1.77,7.75C428.67,432.23,422.56,436.36,415.48,436.36z"/>
			<path class="st13" d="M415.48,394.89v5.78c9.86,0,17.84,7.99,17.84,17.84c0,2.78-0.63,5.41-1.77,7.75
				c-2.88,5.97-9,10.09-16.08,10.09v31.78c0,0,20.55-26.93,23.62-45.05c0.25-1.46,0.38-2.87,0.38-4.2
				C439.48,405.63,428.73,394.89,415.48,394.89z"/>
			<circle class="st21" cx="415.48" cy="418.53" r="19.96"/>
			<path class="st22" d="M439.48,418.89c0,1.33-0.13,2.74-0.38,4.2c-2.26,1.26-4.79,2.33-7.54,3.17c1.13-2.34,1.77-4.97,1.77-7.75
				c0-9.86-7.99-17.84-17.84-17.84c-9.85,0-17.84,7.99-17.84,17.84c0,2.24,0.41,4.38,1.16,6.35c-2.72-1.14-5.16-2.53-7.24-4.11
				c-0.05-0.64-0.08-1.26-0.08-1.86c0-13.25,10.74-24,24-24S439.48,405.63,439.48,418.89z"/>
			<path class="st13" d="M487.73,396.72c-4.7,0-8.51,3.81-8.51,8.51c0,4.7,3.81,8.51,8.51,8.51c4.7,0,8.51-3.81,8.51-8.51
				C496.24,400.53,492.43,396.72,487.73,396.72z M487.73,412.35c-3.93,0-7.12-3.19-7.12-7.12c0-3.93,3.19-7.12,7.12-7.12
				c3.93,0,7.12,3.19,7.12,7.12C494.85,409.16,491.66,412.35,487.73,412.35z"/>
			<path class="st12" d="M487.73,395.04c-5.71,0-10.35,4.63-10.35,10.35c0,0.26,0.01,0.53,0.04,0.8
				c0.66,7.78,10.31,20.43,10.31,20.43s8.86-11.61,10.18-19.42c0.11-0.63,0.17-1.24,0.17-1.81
				C498.08,399.67,493.44,395.04,487.73,395.04z M487.73,412.91c-3.28,0-6.09-2.06-7.19-4.96c-0.32-0.85-0.5-1.77-0.5-2.74
				c0-4.25,3.44-7.69,7.69-7.69c4.25,0,7.69,3.44,7.69,7.69c0,1.2-0.27,2.33-0.76,3.34C493.42,411.14,490.78,412.91,487.73,412.91z"
				/>
			<path class="st13" d="M487.73,395.04v2.49c4.25,0,7.69,3.44,7.69,7.69c0,1.2-0.27,2.33-0.76,3.34c-1.24,2.58-3.88,4.35-6.93,4.35
				v13.7c0,0,8.86-11.61,10.18-19.42c0.11-0.63,0.17-1.24,0.17-1.81C498.08,399.67,493.44,395.04,487.73,395.04z"/>
			<circle class="st23" cx="487.73" cy="405.23" r="8.61"/>
			<path class="st22" d="M498.08,405.38c0,0.57-0.06,1.18-0.17,1.81c-0.97,0.54-2.07,1.01-3.25,1.37c0.49-1.01,0.76-2.14,0.76-3.34
				c0-4.25-3.44-7.69-7.69-7.69c-4.25,0-7.69,3.44-7.69,7.69c0,0.96,0.18,1.89,0.5,2.74c-1.17-0.49-2.22-1.09-3.12-1.77
				c-0.02-0.27-0.04-0.54-0.04-0.8c0-5.71,4.63-10.35,10.35-10.35S498.08,399.67,498.08,405.38z"/>
			<path class="st24" d="M460.23,441.66c0,0.42-0.86,0.75-1.92,0.75c-1.06,0-1.92-0.34-1.92-0.75s0.86-0.75,1.92-0.75
				C459.37,440.91,460.23,441.24,460.23,441.66z"/>
			<path class="st25" d="M460.15,441.45c0,0.4-0.82,0.72-1.84,0.72c-1.02,0-1.84-0.32-1.84-0.72c0-0.4,0.82-0.72,1.84-0.72
				C459.32,440.73,460.15,441.05,460.15,441.45z"/>
			<rect x="454.02" y="436.46" class="st26" width="8.59" height="2.22"/>
		</g>
		<g>
			<g id="XMLID_89_">
				<path id="XMLID_91_" class="st14" d="M330.1,408.2c3.12-19.86,11.44-37.99,23.54-52.94l-38.27,30.34l-10.41,8.25l-39.43,31.26
					h63.19C328.75,419.36,329.23,413.72,330.1,408.2z"/>
				<path id="XMLID_90_" class="st15" d="M307.58,458.45l0.92,0.73l41,32.5l1.62,1.28c-0.31-0.41-0.6-0.83-0.9-1.25
					c-13.51-18.52-21.51-41.32-21.51-65.99c0-0.2,0.01-0.4,0.01-0.61h-63.19l41.92,33.23L307.58,458.45z"/>
			</g>
			<g id="XMLID_86_">
				<path id="XMLID_88_" class="st16" d="M610.78,425.11l-35.28-27.96l-0.06-0.04l-13.14-10.41l-27.25-21.6
					c6.05,9.39,10.73,19.75,13.78,30.78c2.58,9.32,3.99,19.12,4.04,29.25l0.01-0.01H610.78z"/>
				<path id="XMLID_87_" class="st17" d="M549.5,453.19c-0.1,0.39-0.21,0.78-0.31,1.17c-0.93,3.53-2.02,6.99-3.28,10.37
					c-2.49,6.71-5.59,13.12-9.26,19.15l21.57-17.1l52.57-41.67H552.9l-0.01,0.01c0,0.2,0.01,0.4,0.01,0.6
					C552.9,435.2,551.72,444.4,549.5,453.19z"/>
			</g>
			<g id="XMLID_83_">
				<path id="XMLID_85_" class="st18" d="M486.45,313.2l-28.27-35.66l-17.37-21.92v58c18.19,0,35.36,4.36,50.55,12.06
					c3.09,1.57,6.11,3.26,9.03,5.1L486.45,313.2z"/>
				<path id="XMLID_84_" class="st19" d="M398.59,308.89l-7.83,9.88l-6.71,8.47l-2.81,3.54c0.88-0.55,1.77-1.08,2.66-1.61
					c4.53-2.68,9.26-5.05,14.17-7.08c13.17-5.45,27.6-8.46,42.74-8.46v-58L398.59,308.89z"/>
			</g>
			<g id="XMLID_79_">
				<path id="XMLID_82_" class="st20" d="M376.36,403.55c-2.23,6.78-3.45,14.02-3.45,21.55c0,15.81,5.34,30.38,14.3,42
					c12.49,16.19,32.01,26.67,54,26.84V356.26c-0.21,0-0.42,0-0.64,0.01C410.6,356.78,385.29,376.44,376.36,403.55z"/>
				<path id="XMLID_81_" class="st12" d="M387.21,467.11c-8.96-11.62-14.3-26.19-14.3-42c0-7.53,1.21-14.77,3.45-21.55
					c8.93-27.11,34.24-46.78,64.22-47.28c0.21,0,0.42-0.01,0.64-0.01v-28.31c-8.65,0-17.04,1.1-25.05,3.16
					c-12.06,3.11-23.23,8.42-33.08,15.46c-12.68,9.05-23.15,20.98-30.47,34.83c-5.67,10.73-9.45,22.61-10.89,35.2
					c-0.43,3.78-0.68,7.62-0.68,11.52c0,0.02,0,0.03,0,0.05c0.03,1.17,0.98,24.16,25.18,65.25c0.6,1.03,1.21,2.05,1.84,3.1
					c2.55,4.23,5.36,8.64,8.42,13.23c5.41,8.11,11.67,16.79,18.85,25.98c4.47,5.73,9.27,11.64,14.5,17.78
					c7.21,8.46,15.24,17.33,24.04,26.54c1.69,1.77,3.36,3.53,5.11,5.32c0.75,0.77,1.47,1.52,2.23,2.29v-93.74
					C419.23,493.77,399.7,483.3,387.21,467.11z"/>
				<path id="XMLID_80_" class="st13" d="M489.21,533.06c1.22-1.58,2.38-3.13,3.54-4.68c1.89-2.53,3.74-5.03,5.49-7.46
					c1.13-1.58,2.2-3.11,3.27-4.65c3.57-5.13,6.84-10.06,9.8-14.77c1.05-1.67,2.09-3.34,3.06-4.96
					c8.45-13.98,14.24-25.95,18.24-35.8c1.34-3.31,2.49-6.39,3.45-9.21c4.99-14.64,5.32-22.67,5.34-23.35c0-0.02,0-0.03,0-0.05
					c0-3.42-0.22-6.78-0.55-10.11c-0.48-4.7-1.24-9.32-2.34-13.81c-0.6-2.44-1.31-4.84-2.08-7.2c-0.46-1.41-0.95-2.81-1.47-4.19
					c-3.52-9.33-8.38-17.99-14.36-25.75c-6.1-7.91-13.34-14.9-21.51-20.69c-1.4-0.99-2.83-1.95-4.28-2.88
					c-7.32-4.64-15.3-8.33-23.74-10.97c-4.39-1.37-8.9-2.44-13.52-3.2c-5.31-0.87-10.75-1.38-16.31-1.38v28.31
					c0.18,0,0.37-0.01,0.55-0.01c10.92,0,21.24,2.54,30.41,7.07c15.04,7.42,26.99,20.17,33.36,35.78
					c2.85,6.98,4.59,14.53,4.99,22.44c0.06,1.18,0.09,2.36,0.09,3.56c0,23.7-11.98,44.61-30.21,56.99
					c-5.47,3.71-11.49,6.66-17.93,8.69c-6.54,2.06-13.49,3.17-20.71,3.17c-0.18,0-0.37-0.01-0.55-0.01v93.74
					c0.89-0.9,1.73-1.79,2.61-2.68C462.18,566.14,477.11,548.79,489.21,533.06z"/>
			</g>
		</g>
	</g>
</g>
</svg>
